# xmcd
#
# Track frame offsets:
#   150
#   16607
#   36547
#   52945
#   70464
#   86001
#   102576
#   121454
#   141166
#   161182
#   180129
#   194543
#   209917
#   229421
#   244736
#   261450
#   280422
#   298228
#   314555
#
# Disc length: 4425 seconds
#
# Revision: 0
# Processed by: cddbd v1.5.2PL0 Copyright (c) Steve Scherf et al.
# Submitted via: GXTranscoder 2.0.1939
#
DISCID=34114713
DTITLE=Variouﬂ - MIXED
DYEAR=2008
DGENRE=UnClassifiable
TTITLE0=Sugababes - Change
TTITLE1=Boy George - Do You Really Want To Hurt Me
TTITLE2=Culche Candela - Ey DJ
TTITLE3=Stanfour - For All Lovers
TTITLE4=Natalie Imbruglia - Glorious
TTITLE5=Rihanna feat. Ne-Yo - Hate That I Love You
TTITLE6=
TTITLE7=
TTITLE8=
TTITLE9=
TTITLE10=Sandi Thom Lonely Girl
TTITLE11=David Guetta - Love Is Gone
TTITLE12=
TTITLE13=
TTITLE14=
TTITLE15=
TTITLE16=Jordin Sparks - Tattoo
TTITLE17=Taylor Swift - Teardrops on my Guitar
TTITLE18=
EXTD=
EXTT0=
EXTT1=
EXTT2=
EXTT3=
EXTT4=
EXTT5=
EXTT6=
EXTT7=
EXTT8=
EXTT9=
EXTT10=
EXTT11=
EXTT12=
EXTT13=
EXTT14=
EXTT15=
EXTT16=
EXTT17=
EXTT18=
PLAYORDER=
